<?xml version="1.0" encoding="utf-8"?>
<!-- Generator: Adobe Illustrator 27.7.0, SVG Export Plug-In . SVG Version: 6.00 Build 0)  -->
<svg version="1.2" baseProfile="tiny-ps" xmlns="http://www.w3.org/2000/svg" xmlns:xlink="http://www.w3.org/1999/xlink"
	 viewBox="0 0 100 100" overflow="visible" xml:space="preserve"><title>Banter</title>
<g>
	<path d="M52.83,53.5c7.66,0,11.4,3.44,11.4,8.55c0,5.21-3.73,8.45-11.4,8.45H34.55v-17H52.83z M34.55,28.5h17.38
		c7.41,0,10.57,3.36,10.57,8s-3.16,8-10.57,8H34.55V28.5z M61.65,48.8c7.7-1,14-6.1,14-13.2c0-10.3-6.8-17.1-22.7-17.1h-30.4v63h32
		c14.7,0,22.9-6.4,22.9-17.3C77.45,55.2,70.05,50,61.65,48.8"/>
</g>
</svg>
